<?xml version="1.0" encoding="utf-8"?>
<!-- Generator: Adobe Illustrator 21.1.0, SVG Export Plug-In . SVG Version: 6.00 Build 0)  -->
<svg version="1.1" id="Calque_1" xmlns="http://www.w3.org/2000/svg" xmlns:xlink="http://www.w3.org/1999/xlink" x="0px" y="0px"
	 width="227.2px" height="230.4px" viewBox="0 0 227.2 230.4" style="enable-background:new 0 0 227.2 230.4;" xml:space="preserve"
	>
<style type="text/css">
	.st0{fill:#16726B;}
</style>
<path class="st0" d="M113.6,0C50.9,0,0,51.6,0,115.2c0,7.2,0.7,14.3,1.9,21.1l0,0c0,0.1,0.1,0.2,0.1,0.4c1.1,6,2.6,11.8,4.6,17.3
	c5.5,20.8,9.5,40.7,0,62.3L0,230.4l14-3.8l-0.1,0.1c25.3-7,37.8-9.7,61.1-3.1c3.2,1.2,6.5,2.2,9.8,3.1c0,0,0.1,0,0.1,0
	c0.4,0.2,0.8,0.2,1.2,0.3c8.8,2.2,18,3.4,27.5,3.4c62.8,0,113.6-51.6,113.6-115.2S176.4,0,113.6,0 M120.8,179.1
	c-38.7,0-70.1-31.8-70.1-71.1c0-39.3,31.4-71.1,70.1-71.1c38.7,0,70.1,31.8,70.1,71.1C190.9,147.2,159.5,179.1,120.8,179.1"/>
</svg>
